<?xml version="1.0" standalone="no"?>
<!DOCTYPE svg PUBLIC "-//W3C//DTD SVG 20010904//EN"
 "http://www.w3.org/TR/2001/REC-SVG-20010904/DTD/svg10.dtd">
<svg version="1.0" xmlns="http://www.w3.org/2000/svg"
 width="700.000000pt" height="700.000000pt" viewBox="0 0 700.000000 700.000000"
 preserveAspectRatio="xMidYMid meet">
<metadata>
Created by potrace 1.14, written by Peter Selinger 2001-2017
</metadata>
<g transform="translate(0.000000,700.000000) scale(0.100000,-0.100000)"
fill="#000000" stroke="none">
<path d="M3477 6194 c-1 -1 -56 -4 -122 -8 -66 -3 -133 -8 -150 -10 -16 -2
-59 -7 -95 -11 -76 -8 -257 -41 -360 -65 -505 -120 -941 -410 -1171 -780 -151
-243 -241 -559 -248 -871 l-2 -89 685 0 686 0 0 37 c0 57 29 162 63 227 74
140 261 265 457 305 97 20 104 21 185 28 138 12 377 5 460 -12 11 -3 34 -7 50
-9 151 -24 296 -88 379 -166 84 -79 109 -185 75 -315 -28 -107 -66 -172 -163
-274 -115 -119 -348 -255 -831 -481 -360 -169 -837 -415 -1025 -530 -8 -5 -37
-23 -65 -39 l-50 -31 625 0 c685 -1 732 -2 841 -25 146 -30 240 -71 344 -147
l60 -44 0 88 c-1 48 2 88 5 89 3 1 102 2 220 2 l215 2 170 89 c258 134 391
225 544 371 268 257 432 560 466 863 3 26 8 63 10 82 6 46 6 278 1 310 -2 14
-7 48 -10 75 -30 273 -159 547 -353 750 -208 218 -527 394 -881 486 -118 31
-234 55 -307 64 -22 2 -58 7 -80 10 -84 11 -124 15 -242 21 -108 6 -382 11
-386 8z"/>
<path d="M1904 2833 c-173 -171 -257 -274 -397 -488 -99 -151 -204 -481 -232
-725 -4 -30 -8 -71 -11 -90 -4 -35 -6 -175 -5 -425 l1 -131 383 2 c210 1 384
2 387 3 7 1 5 1959 -2 1966 -2 3 -59 -48 -124 -112z"/>
<path d="M2308 2817 c-3 -10 -3 -1842 1 -1857 2 -8 1166 -4 1251 4 343 32 508
212 494 537 -7 175 -92 313 -234 380 -28 13 -50 26 -50 30 0 3 25 18 55 33
108 55 196 176 213 292 25 183 -15 341 -113 438 -78 77 -173 118 -320 140
-124 19 -1291 22 -1297 3z m1162 -425 c55 -27 79 -72 77 -142 -2 -69 -23 -103
-83 -134 -37 -20 -58 -21 -351 -24 l-311 -3 0 161 -1 160 317 0 c282 0 321 -2
352 -18z m0 -692 c114 -64 123 -247 14 -304 -37 -20 -58 -21 -356 -23 -200 -1
-320 2 -324 8 -4 7 -8 257 -5 337 1 11 60 13 314 10 311 -3 312 -3 357 -28z"/>
<path d="M4415 2790 l-39 -5 -1 -880 c0 -484 1 -888 3 -897 4 -15 27 -16 238
-16 l234 0 1 101 c0 56 0 202 0 324 l0 222 247 -3 c251 -3 294 -7 324 -33 20
-18 42 -83 62 -188 20 -104 29 -134 62 -201 42 -86 105 -149 188 -188 90 -43
122 -49 279 -51 108 -2 129 0 136 14 9 19 9 366 0 376 -4 3 -19 8 -35 11 -108
18 -151 61 -175 176 -15 68 -39 116 -80 156 -18 17 -31 34 -28 36 2 2 33 19
69 37 77 39 157 116 188 179 42 88 55 165 49 290 -6 124 -24 193 -72 276 -58
102 -179 189 -316 228 -84 24 -107 27 -214 33 -139 6 -1071 9 -1120 3z m1140
-409 c38 -16 84 -59 97 -91 25 -62 15 -146 -22 -193 -48 -61 -53 -62 -431 -65
l-346 -3 2 183 c1 101 3 183 4 184 0 0 151 0 334 -1 237 -1 341 -5 362 -14z"/>
<path d="M5126 1361 c-2 -6 0 -362 3 -379 1 -7 224 -9 239 -3 2 0 -10 20 -26
44 -42 62 -83 161 -107 257 l-22 85 -42 1 c-23 0 -43 -2 -45 -5z"/>
</g>
</svg>
