<?xml version="1.0" encoding="utf-8"?>
<svg width="8px" height="34px" viewBox="0 0 8 34" version="1.1" xmlns:xlink="http://www.w3.org/1999/xlink" xmlns="http://www.w3.org/2000/svg">
  <path d="M2.99915 0L8 0.000244141L8 34L2.99902 33.9998C2.45532 33.9996 1.9491 33.8619 1.48035 33.5867C1.01147 33.3114 0.644653 32.9363 0.379883 32.4615C0.11499 31.9867 -0.0113525 31.4775 0.000732422 30.934C0.0128174 30.3904 0.161743 29.8873 0.44751 29.4248L6.17468 20.1522C6.77161 19.1862 7.06982 18.1354 7.06982 16.9998C7.06982 15.8641 6.77161 14.8134 6.17468 13.8473L0.447632 4.57495C0.162109 4.11243 0.0131836 3.6095 0.000976563 3.06592C-0.0111084 2.52234 0.115234 2.01318 0.380005 1.53821C0.644897 1.06348 1.01172 0.688354 1.48059 0.413086C1.94946 0.137695 2.45557 0 2.99915 0L2.99915 0Z" id="Путь-1-Copy" fill="#D3D3D3" fill-rule="evenodd" stroke="none" />
</svg>